<?xml version="1.0" encoding="utf-8"?>
<!-- Generator: Adobe Illustrator 23.0.2, SVG Export Plug-In . SVG Version: 6.00 Build 0)  -->
<svg version="1.1" id="Layer_1" xmlns="http://www.w3.org/2000/svg" xmlns:xlink="http://www.w3.org/1999/xlink" x="0px" y="0px"
	 viewBox="0 0 113 24" style="enable-background:new 0 0 113 24;" xml:space="preserve">
<style type="text/css">
	.st0{fill:#333333;}
	.st1{fill:url(#path2293_1_);}
</style>
<g id="g3291" transform="matrix(1.0019011,0,0,1.0019011,-102.49431,59.976673)">
	<g>
		<path class="st0" d="M112.39-43.69c-0.42-0.35-0.89-0.64-1.4-0.88c-0.51-0.25-1.04-0.47-1.58-0.65c-1.18-0.4-2.04-0.75-2.6-1.06
			c-0.56-0.3-0.84-0.79-0.84-1.47c0-0.63,0.24-1.1,0.71-1.4c0.47-0.32,1.11-0.47,1.91-0.47c0.86,0,1.61,0.15,2.25,0.44
			c0.65,0.28,1.26,0.64,1.81,1.07l0.35-2.92c-0.56-0.29-1.19-0.55-1.91-0.76c-0.7-0.22-1.56-0.33-2.57-0.33
			c-1.32,0-2.42,0.21-3.28,0.63c-0.85,0.41-1.49,0.97-1.91,1.67c-0.42,0.7-0.63,1.48-0.63,2.32c0,0.97,0.22,1.74,0.66,2.33
			c0.45,0.58,1.03,1.04,1.75,1.39c0.72,0.35,1.49,0.65,2.3,0.91c0.51,0.17,1,0.35,1.47,0.55c0.46,0.2,0.84,0.45,1.12,0.76
			c0.28,0.29,0.43,0.68,0.43,1.17c0,0.59-0.24,1.03-0.72,1.34c-0.47,0.29-1.16,0.44-2.06,0.44c-1.04,0-1.98-0.17-2.81-0.5
			c-0.82-0.35-1.5-0.7-2.03-1.07l-0.35,2.99c0.57,0.3,1.29,0.59,2.16,0.87s1.92,0.41,3.15,0.41c1.47,0,2.64-0.22,3.51-0.65
			c0.88-0.44,1.52-1.01,1.91-1.72c0.4-0.7,0.6-1.47,0.6-2.29c0-0.71-0.13-1.33-0.38-1.84C113.16-42.92,112.82-43.35,112.39-43.69z"
			/>
		<path class="st0" d="M128.29-38.84c-0.23-0.18-0.38-0.48-0.46-0.9c-0.06-0.43-0.09-1.02-0.09-1.78v-3.62c0-1.71-0.2-3.08-0.61-4.1
			c-0.41-1.02-1.02-1.75-1.84-2.19c-0.82-0.44-1.85-0.66-3.1-0.66c-1,0-1.96,0.14-2.9,0.41c-0.94,0.27-1.78,0.64-2.54,1.1l0.38,2.68
			c0.83-0.5,1.58-0.85,2.24-1.02c0.66-0.19,1.31-0.28,1.94-0.28c1.05,0,1.83,0.22,2.35,0.66c0.51,0.43,0.78,1.26,0.79,2.49
			c-0.7,0.01-1.47,0.07-2.29,0.19s-1.63,0.3-2.43,0.55c-0.79,0.24-1.51,0.57-2.17,0.99c-0.66,0.42-1.19,0.95-1.59,1.58
			c-0.4,0.62-0.6,1.37-0.6,2.25c0,0.92,0.2,1.73,0.6,2.41c0.41,0.68,0.97,1.22,1.67,1.61c0.7,0.38,1.51,0.57,2.41,0.57
			c0.98,0,1.88-0.19,2.69-0.57c0.83-0.38,1.52-0.88,2.08-1.51c0.2,0.43,0.45,0.8,0.74,1.12c0.29,0.3,0.68,0.54,1.15,0.71
			c0.48,0.17,1.11,0.25,1.89,0.25h0.72l0.41-2.66h-0.38C128.88-38.57,128.52-38.66,128.29-38.84z M124.45-40.16
			c-0.43,0.53-0.96,0.94-1.59,1.23c-0.62,0.29-1.22,0.44-1.81,0.44h0c-0.71,0-1.27-0.17-1.67-0.5c-0.4-0.35-0.6-0.9-0.6-1.65
			c0-0.7,0.23-1.28,0.68-1.73c0.46-0.45,1.11-0.79,1.95-1.01c0.85-0.23,1.86-0.37,3.04-0.43V-40.16z"/>
		<path class="st0" d="M139.68-52.09c-1.01,0-1.98,0.19-2.9,0.57c-0.64,0.26-1.26,0.65-1.86,1.15l-0.19-1.42h-2.82v15.57h3.29
			v-11.32c0.3-0.43,0.66-0.78,1.1-1.05c0.75-0.45,1.61-0.68,2.58-0.68c1.32,0,2.26,0.37,2.82,1.1c0.56,0.74,0.84,1.89,0.84,3.45
			v8.49h3.29v-8.64c0-2.19-0.49-3.93-1.47-5.25C143.4-51.43,141.83-52.09,139.68-52.09z"/>
		<path class="st0" d="M160.14-50.42c-0.45-0.43-0.94-0.78-1.5-1.05c-0.89-0.42-1.88-0.63-2.96-0.63c-1.5,0-2.79,0.38-3.86,1.13
			c-1.06,0.75-1.88,1.74-2.44,2.98c-0.56,1.23-0.84,2.56-0.84,4c0,1.48,0.29,2.83,0.88,4.05c0.6,1.22,1.43,2.2,2.51,2.93
			c1.07,0.72,2.32,1.09,3.75,1.09c1.15,0,2.16-0.23,3.06-0.69c0.56-0.29,1.06-0.68,1.49-1.13l0.2,1.51h3.01v-23.64h-3.29V-50.42z
			 M159.84-41.06c-0.37,0.78-0.87,1.36-1.51,1.75c-0.63,0.39-1.33,0.58-2.11,0.58c-0.9,0-1.68-0.23-2.33-0.69
			c-0.64-0.46-1.13-1.09-1.48-1.88c-0.34-0.8-0.5-1.69-0.5-2.68c0-1.03,0.17-1.94,0.5-2.73c0.35-0.8,0.84-1.42,1.48-1.88
			c0.65-0.46,1.43-0.69,2.33-0.69c0.78,0,1.48,0.21,2.11,0.63c0.64,0.41,1.15,1.01,1.51,1.81c0.38,0.79,0.57,1.74,0.57,2.85
			C160.41-42.81,160.22-41.84,159.84-41.06z"/>
		<path class="st0" d="M178.83-50.96c-1.04-0.76-2.3-1.13-3.78-1.13c-1.11,0-2.13,0.24-3.06,0.72c-0.58,0.3-1.09,0.68-1.54,1.1
			v-9.59h-3.29v23.64h3.01l0.2-1.51c0.44,0.45,0.95,0.84,1.55,1.13c0.96,0.46,2,0.69,3.14,0.69c1.4,0,2.62-0.36,3.67-1.09
			c1.05-0.74,1.87-1.71,2.46-2.93c0.59-1.23,0.88-2.58,0.88-4.07c0-1.44-0.28-2.77-0.84-4C180.68-49.23,179.88-50.21,178.83-50.96z
			 M178.2-41.31c-0.33,0.8-0.79,1.43-1.4,1.89c-0.61,0.46-1.34,0.69-2.19,0.69c-0.86,0-1.62-0.2-2.27-0.6
			c-0.64-0.4-1.15-0.99-1.51-1.77c-0.37-0.78-0.55-1.74-0.55-2.9c0-1.13,0.18-2.09,0.55-2.87c0.37-0.79,0.87-1.39,1.51-1.8
			c0.65-0.41,1.41-0.61,2.27-0.61c0.85,0,1.58,0.23,2.19,0.69c0.61,0.45,1.08,1.08,1.4,1.88c0.33,0.79,0.49,1.69,0.49,2.71
			C178.69-43.01,178.53-42.11,178.2-41.31z"/>
		<polygon class="st0" points="209.67,-44.13 214.81,-51.79 210.93,-51.79 207.75,-46.34 204.31,-51.79 200.5,-51.79 205.75,-43.99 
			200.42,-36.22 204.24,-36.22 207.64,-41.66 211.11,-36.22 214.92,-36.22 		"/>
	</g>
	
		<linearGradient id="path2293_1_" gradientUnits="userSpaceOnUse" x1="-341.0427" y1="496.1131" x2="-340.9061" y2="496.1131" gradientTransform="matrix(411.656 411.656 -411.656 411.656 344945.8438 -63745.2461)">
		<stop  offset="0" style="stop-color:#4CD6C8"/>
		<stop  offset="0.1346" style="stop-color:#4CD6C8"/>
		<stop  offset="1" style="stop-color:#14B0BF"/>
	</linearGradient>
	<path id="path2293" class="st1" d="M184-51.79v1.35v14.22h14.5v-15.57H184z M186.7-49.09h9.09v10.16h-9.09V-49.09z"/>
</g>
</svg>
